/* XPM */
static char *_0f84e754d8a406ab4f489329871a248rRpWPwUajUmlGWoj[] = {
/* columns rows colors chars-per-pixel */
"16 16 28 1 ",
"  c #24323F",
". c #233442",
"X c #253646",
"o c #2A3946",
"O c #2D3A46",
"+ c #006086",
"@ c #016289",
"# c #066488",
"$ c #00648C",
"% c #096689",
"& c #026790",
"* c #076990",
"= c #0A6A90",
"- c #3C9FE9",
"; c #3FA1EB",
": c #3CA2EE",
"> c #3EA5F2",
", c #ACD2E5",
"< c #ADD4E7",
"1 c #ACD6EA",
"2 c #AED9EE",
"3 c #B2D7E6",
"4 c #B3DBEE",
"5 c #F6F7F7",
"6 c #FEFBF7",
"7 c #F5F9FA",
"8 c #F7FBFE",
"9 c white",
/* pixels */
".$@o441$$$*4441+",
"*41*44<   O9998-",
"o41*441*4442>>:+",
"o41=997*4441*44<",
"*41&>>:=9997*44<",
"=97&>>:&>>>:*44,",
"&>:&>>:&>>>:=44<",
"*4442:@.$$&:*443",
"=9997*44441$=996",
"&>>>:*4444<.&>>;",
".$$$@o4444< .$$@",
"44441=99995o441@",
"44441&>>>>:=997#",
"99997&>>>>:&>>:%",
">>>>:&>>>>:&>>:#",
">>>>;X>>>>;.$$@ "
};
