/* XPM */
static char *_d16c633bc9d4c9da011d22680697791dn1mPbWg37o5Iqum[] = {
/* columns rows colors chars-per-pixel */
"16 16 17 1 ",
"  c gray50",
". c #880015",
"X c #ED1C24",
"o c #FC7E27",
"O c #FF7F27",
"+ c #B97A57",
"@ c #22B14C",
"# c #B5E61D",
"$ c #FFC90E",
"% c #3F48CC",
"& c #A349A4",
"* c #EF6DA6",
"= c #7092BE",
"- c #00A2E8",
"; c #EFE4B0",
": c #FFAEC9",
"> c #99D9EA",
/* pixels */
"*;=>#$:+%-&@oX. ",
"*;=>#$:+%-&@oX. ",
"*;=>#$:+%-&@oX. ",
"*;=>#$:+%-&@OX. ",
"*;=>#$:+%-&@OX. ",
"*;=>#$:+%-&@OX. ",
"*;=>#$:+%-&@OX. ",
"*;=>#$:+%-&@OX. ",
"*;=>#$:+%-&@OX. ",
"*;=>#$:+%-&@OX. ",
"*;=>#$:+%-&@OX. ",
"*;=>#$:+%-&@OX. ",
"*;=>#$:+%-&@OX. ",
"*;=>#$:+%-&@OX. ",
"*;=>#$:+%-&@OX. ",
"*;=>#$:+%-&@OX. "
};
